<svg width="29" height="32" viewBox="0 0 29 32" fill="none" xmlns="http://www.w3.org/2000/svg">
<path d="M8.14286 4.64286H10.1786V6.67857H8.14286V4.64286ZM8.14286 6.67857H10.1786V8.71429H8.14286V6.67857ZM6.10714 6.67857H8.14286V8.71429H6.10714V6.67857ZM6.10714 4.64286H8.14286V6.67857H6.10714V4.64286ZM4.07143 4.64286H6.10714V6.67857H4.07143V4.64286ZM4.07143 6.67857H6.10714V8.71429H4.07143V6.67857ZM4.07143 8.71429H6.10714V10.75H4.07143V8.71429ZM2.03571 6.67857H4.07143V8.71429H2.03571V6.67857ZM2.03571 8.71429H4.07143V10.75H2.03571V8.71429ZM2.03571 10.75H4.07143V12.7857H2.03571V10.75ZM2.03571 12.7857H4.07143V14.8214H2.03571V12.7857ZM4.07143 12.7857H6.10714V14.8214H4.07143V12.7857ZM4.07143 10.75H6.10714V12.7857H4.07143V10.75ZM2.03571 22.9643H4.07143V25H2.03571V22.9643ZM2.03571 20.9286H4.07143V22.9643H2.03571V20.9286ZM2.03571 18.8929H4.07143V20.9286H2.03571V18.8929ZM2.03571 16.8571H4.07143V18.8929H2.03571V16.8571ZM2.03571 14.8214H4.07143V16.8571H2.03571V14.8214ZM4.07143 14.8214H6.10714V16.8571H4.07143V14.8214ZM4.07143 16.8571H6.10714V18.8929H4.07143V16.8571ZM4.07143 18.8929H6.10714V20.9286H4.07143V18.8929ZM4.07143 20.9286H6.10714V22.9643H4.07143V20.9286ZM4.07143 22.9643H6.10714V25H4.07143V22.9643ZM0 10.75H2.03571V12.7857H0V10.75ZM6.10714 10.75H8.14286V12.7857H6.10714V10.75ZM8.14286 10.75H10.1786V12.7857H8.14286V10.75ZM0 12.7857H2.03571V14.8214H0V12.7857ZM6.10714 12.7857H8.14286V14.8214H6.10714V12.7857ZM8.14286 12.7857H10.1786V14.8214H8.14286V12.7857ZM12.209 10.75H14.2447V12.7857H12.209V10.75ZM12.209 8.71429H14.2447V10.75H12.209V8.71429ZM14.2447 8.71429H16.2804V10.75H14.2447V8.71429ZM14.2447 10.75H16.2804V12.7857H14.2447V10.75ZM14.2447 12.7857H16.2804V14.8214H14.2447V12.7857ZM14.2447 14.8214H16.2804V16.8571H14.2447V14.8214ZM14.2447 16.8571H16.2804V18.8929H14.2447V16.8571ZM12.209 16.8571H14.2447V18.8929H12.209V16.8571ZM12.209 14.8214H14.2447V16.8571H12.209V14.8214ZM12.209 12.7857H14.2447V14.8214H12.209V12.7857ZM12.209 18.8929H14.2447V20.9286H12.209V18.8929ZM14.2447 18.8929H16.2804V20.9286H14.2447V18.8929ZM14.2447 20.9286H16.2804V22.9643H14.2447V20.9286ZM14.2447 22.9643H16.2804V25H14.2447V22.9643ZM12.209 22.9643H14.2447V25H12.209V22.9643ZM12.209 20.9286H14.2447V22.9643H12.209V20.9286ZM22.3876 22.9643H24.4233V25H22.3876V22.9643ZM24.4233 22.9643H26.459V25H24.4233V22.9643ZM24.4233 20.9286H26.459V22.9643H24.4233V20.9286ZM24.4233 18.8929H26.459V20.9286H24.4233V18.8929ZM24.4233 16.8571H26.459V18.8929H24.4233V16.8571ZM24.4233 14.8214H26.459V16.8571H24.4233V14.8214ZM24.4233 12.7857H26.459V14.8214H24.4233V12.7857ZM24.4233 10.75H26.459V12.7857H24.4233V10.75ZM22.3876 14.8214H24.4233V16.8571H22.3876V14.8214ZM22.3876 16.8571H24.4233V18.8929H22.3876V16.8571ZM22.3876 18.8929H24.4233V20.9286H22.3876V18.8929ZM22.3876 20.9286H24.4233V22.9643H22.3876V20.9286ZM22.3876 12.7857H24.4233V14.8214H22.3876V12.7857ZM16.2804 10.75H18.3161V12.7857H16.2804V10.75ZM18.3161 10.75H20.3518V12.7857H18.3161V10.75ZM20.3518 10.75H22.3876V12.7857H20.3518V10.75ZM20.3518 8.71429H22.3876V10.75H20.3518V8.71429ZM22.3876 8.71429H24.4233V10.75H22.3876V8.71429ZM22.3876 10.75H24.4233V12.7857H22.3876V10.75ZM18.3161 8.71429H20.3518V10.75H18.3161V8.71429ZM12.209 4.64286H14.2447V6.67857H12.209V4.64286ZM14.2447 4.64286H16.2804V6.67857H14.2447V4.64286ZM14.2447 6.67857H16.2804V8.71429H14.2447V6.67857ZM12.209 6.67857H14.2447V8.71429H12.209V6.67857Z" fill="#DCFF50"/>
</svg>
