<svg width="157" height="41" viewBox="0 0 157 41" fill="none" xmlns="http://www.w3.org/2000/svg">
<path fill-rule="evenodd" clip-rule="evenodd" d="M140 0H137V6.00001H140C138.343 6.00001 137 7.34317 137 9.00001V12H143V9.00001C143 10.6568 144.343 12 146 12H149V6.00001H146C147.657 6.00001 149 4.65686 149 3V0H143V3C143 1.34315 141.657 0 140 0ZM143 6.00001H140C141.657 6.00001 143 7.34317 143 9.00001V6.00001ZM143 6.00001V3C143 4.65686 144.343 6.00001 146 6.00001H143Z" fill="#DCFF50"/>
<path d="M15.544 9.032C16.5893 9.032 17.4747 9.36267 18.2 10.024C18.9467 10.6853 19.32 11.5067 19.32 12.488C19.32 12.744 19.3093 12.9787 19.288 13.192C19.288 13.4053 19.2667 13.608 19.224 13.8H17.72C17.7627 13.4587 17.784 13.256 17.784 13.192C17.784 13.1067 17.784 13.0213 17.784 12.936C17.784 12.5947 17.6667 12.328 17.432 12.136C17.2187 11.944 16.9307 11.848 16.568 11.848C16.0347 11.848 15.5653 12.072 15.16 12.52C14.776 12.968 14.4987 13.6187 14.328 14.472L13.784 17H16.12L15.896 18.28H13.528L9.848 35.56C9.464 37.3733 8.792 38.728 7.832 39.624C6.872 40.5413 5.63467 41 4.12 41C3.07467 41 2.18933 40.6693 1.464 40.008C0.717333 39.3467 0.344 38.5253 0.344 37.544C0.344 36.4347 0.717333 35.528 1.464 34.824C2.18933 34.12 3.65067 33.4267 5.848 32.744L9.72 14.472C10.104 12.68 10.7867 11.3253 11.768 10.408C12.7493 9.49067 14.008 9.032 15.544 9.032ZM5.624 33.8C4.38667 34.2053 3.49067 34.6747 2.936 35.208C2.38133 35.7413 2.104 36.3707 2.104 37.096C2.104 37.352 2.24267 37.5867 2.52 37.8C2.776 38.0347 3.064 38.152 3.384 38.152C3.78933 38.152 4.152 37.9387 4.472 37.512C4.792 37.0853 5.03733 36.4667 5.208 35.656L5.624 33.8ZM20.8753 30.088C21.4299 30.088 21.9206 29.8533 22.3473 29.384C22.7953 28.8933 23.1579 28.1893 23.4353 27.272L25.6113 17H30.2193L27.9153 27.88C27.8726 28.072 27.8406 28.2533 27.8193 28.424C27.7979 28.5733 27.7873 28.7333 27.7873 28.904C27.7873 29.3307 27.8833 29.64 28.0753 29.832C28.2886 30.0027 28.6299 30.088 29.0993 30.088C29.6539 30.088 30.1553 29.8427 30.6033 29.352C31.0513 28.8613 31.4139 28.168 31.6912 27.272H33.0353C32.3526 29.2347 31.4673 30.7173 30.3793 31.72C29.2913 32.7013 28.0326 33.192 26.6033 33.192C25.6859 33.192 24.9499 32.936 24.3953 32.424C23.8406 31.8907 23.5206 31.1333 23.4353 30.152C22.8166 31.176 22.1126 31.944 21.3233 32.456C20.5553 32.9467 19.6806 33.192 18.6993 33.192C17.6326 33.192 16.7899 32.8613 16.1713 32.2C15.5739 31.5173 15.2752 30.568 15.2752 29.352C15.2752 29.0747 15.2966 28.7653 15.3392 28.424C15.3819 28.0613 15.4459 27.6773 15.5312 27.272L17.7073 17H22.3153L20.0113 27.88C19.9686 28.0507 19.9366 28.2107 19.9153 28.36C19.9153 28.488 19.9153 28.6267 19.9153 28.776C19.9153 29.2027 19.9899 29.5333 20.1393 29.768C20.3099 29.9813 20.5553 30.088 20.8753 30.088ZM41.4543 27.656C41.4543 27.912 41.4436 28.136 41.4223 28.328C41.4009 28.52 41.3689 28.7013 41.3263 28.872C41.7529 28.616 42.1689 28.3493 42.5743 28.072C42.9796 27.7947 43.3316 27.528 43.6303 27.272H44.9743C44.3129 28.04 43.5769 28.7547 42.7663 29.416C41.9769 30.056 41.0809 30.6747 40.0783 31.272C39.5023 31.8907 38.7663 32.3707 37.8703 32.712C36.9743 33.032 36.0356 33.192 35.0543 33.192C33.6249 33.192 32.4836 32.808 31.6303 32.04C30.7982 31.2507 30.3822 30.2693 30.3822 29.096C30.3822 28.4347 30.5422 27.8373 30.8622 27.304C31.1822 26.7493 31.5876 26.3547 32.0783 26.12C32.8036 24.8187 33.4756 23.432 34.0943 21.96C34.7343 20.4667 35.3743 18.696 36.0143 16.648L40.7503 16.008C40.8143 17.608 40.8889 19.0693 40.9743 20.392C41.0596 21.7147 41.1663 23.1547 41.2943 24.712C41.3583 25.608 41.4009 26.2373 41.4223 26.6C41.4436 26.9627 41.4543 27.3147 41.4543 27.656ZM36.2063 20.104C35.9289 20.9787 35.5876 21.896 35.1823 22.856C34.7983 23.7947 34.2756 24.8933 33.6143 26.152C33.8489 26.2587 34.0303 26.408 34.1583 26.6C34.2863 26.792 34.3503 27.016 34.3503 27.272C34.3503 27.6773 34.2116 28.04 33.9343 28.36C33.6569 28.68 33.3262 28.84 32.9423 28.84C32.7289 28.84 32.5476 28.808 32.3983 28.744C32.2489 28.6587 32.1423 28.552 32.0783 28.424C32.0783 29.2133 32.2276 29.7893 32.5263 30.152C32.8463 30.4933 33.3476 30.664 34.0303 30.664C34.9049 30.664 35.5876 30.408 36.0783 29.896C36.5689 29.384 36.8143 28.648 36.8143 27.688C36.8143 27.3893 36.8036 27.0907 36.7823 26.792C36.7609 26.472 36.7183 25.9493 36.6543 25.224C36.5476 24.2213 36.4623 23.336 36.3983 22.568C36.3343 21.8 36.2703 20.9787 36.2063 20.104ZM51.529 12.744C51.529 13.448 51.273 14.0453 50.761 14.536C50.2703 15.0267 49.673 15.272 48.969 15.272C48.265 15.272 47.6677 15.0267 47.177 14.536C46.6863 14.0453 46.441 13.448 46.441 12.744C46.441 12.04 46.6863 11.4427 47.177 10.952C47.6677 10.44 48.265 10.184 48.969 10.184C49.673 10.184 50.2703 10.44 50.761 10.952C51.273 11.4427 51.529 12.04 51.529 12.744ZM43.369 29.352C43.369 29.0747 43.3903 28.7653 43.433 28.424C43.4757 28.0613 43.5397 27.6773 43.625 27.272L45.801 17H50.409L48.105 27.88C48.0623 28.072 48.0303 28.2533 48.009 28.424C47.9877 28.5733 47.977 28.7333 47.977 28.904C47.977 29.3307 48.073 29.64 48.265 29.832C48.4783 30.0027 48.8197 30.088 49.289 30.088C49.8863 30.088 50.4517 29.832 50.985 29.32C51.5183 28.7867 51.913 28.104 52.169 27.272H53.513C52.8303 29.2133 51.913 30.6853 50.761 31.688C49.609 32.6907 48.2863 33.192 46.793 33.192C45.7263 33.192 44.8837 32.8613 44.265 32.2C43.6677 31.5173 43.369 30.568 43.369 29.352ZM51.7082 28.072C51.7082 26.856 51.9002 25.5653 52.2843 24.2C52.6896 22.8347 53.2336 21.6187 53.9163 20.552C54.7056 19.2933 55.6549 18.344 56.7643 17.704C57.8736 17.0427 59.1109 16.712 60.4763 16.712C61.8416 16.712 62.8656 17.1387 63.5483 17.992C64.2309 18.8453 64.5723 20.1253 64.5723 21.832C64.6149 21.8533 64.6576 21.8747 64.7003 21.896C64.7643 21.896 64.8389 21.896 64.9243 21.896C65.5856 21.896 66.3749 21.7147 67.2923 21.352C68.2096 20.9893 69.0629 20.5307 69.8523 19.976L70.1403 20.84C69.5429 21.48 68.7429 22.0347 67.7403 22.504C66.7589 22.9733 65.6709 23.304 64.4763 23.496C64.2203 26.376 63.3883 28.7013 61.9803 30.472C60.5723 32.2427 58.8549 33.128 56.8283 33.128C55.1643 33.128 53.8949 32.7013 53.0203 31.848C52.1456 30.9947 51.7082 29.736 51.7082 28.072ZM60.7323 18.664C59.7083 18.664 58.7376 19.6987 57.8203 21.768C56.9243 23.8373 56.4763 25.8 56.4763 27.656C56.4763 28.6587 56.5829 29.3413 56.7963 29.704C57.0309 30.0667 57.4683 30.248 58.1083 30.248C58.8976 30.248 59.6443 29.608 60.3483 28.328C61.0736 27.048 61.5643 25.4693 61.8203 23.592C61.5216 23.528 61.2976 23.3893 61.1483 23.176C61.0203 22.9413 60.9563 22.632 60.9563 22.248C60.9563 21.8427 61.0416 21.4907 61.2123 21.192C61.3829 20.8933 61.6283 20.6693 61.9483 20.52C61.9056 19.8373 61.7883 19.3573 61.5963 19.08C61.4256 18.8027 61.1376 18.664 60.7323 18.664ZM74.151 29.576C74.151 29.192 74.1937 28.712 74.279 28.136C74.3857 27.56 74.5883 26.6427 74.887 25.384C75.1857 24.168 75.3777 23.2933 75.463 22.76C75.5483 22.2267 75.591 21.7787 75.591 21.416C75.591 20.8827 75.495 20.4773 75.303 20.2C75.111 19.9227 74.823 19.784 74.439 19.784C73.927 19.784 73.447 20.0507 72.999 20.584C72.5723 21.096 72.2203 21.8107 71.943 22.728L69.767 33H65.159L68.551 17H73.159L72.807 18.664C73.3403 18.0667 73.9163 17.6187 74.535 17.32C75.1537 17.0213 75.8257 16.872 76.551 16.872C77.6817 16.872 78.5563 17.1813 79.175 17.8C79.7937 18.4187 80.103 19.3147 80.103 20.488C80.103 20.9787 80.039 21.5653 79.911 22.248C79.8043 22.9093 79.5803 23.9333 79.239 25.32C78.9617 26.408 78.7803 27.176 78.695 27.624C78.6097 28.072 78.567 28.4453 78.567 28.744C78.567 29.192 78.6737 29.5333 78.887 29.768C79.1003 29.9813 79.4203 30.088 79.847 30.088C80.3803 30.088 80.839 29.9067 81.223 29.544C81.607 29.1813 82.0443 28.424 82.535 27.272H83.879C83.1963 29.256 82.3643 30.7387 81.383 31.72C80.423 32.7013 79.271 33.192 77.927 33.192C76.7323 33.192 75.8043 32.872 75.143 32.232C74.4817 31.5707 74.151 30.6853 74.151 29.576ZM97.2448 29.576C97.2448 29.192 97.2874 28.712 97.3728 28.136C97.4794 27.56 97.6821 26.6427 97.9808 25.384C98.2794 24.168 98.4714 23.2933 98.5568 22.76C98.6421 22.2267 98.6848 21.7787 98.6848 21.416C98.6848 20.8827 98.5781 20.4773 98.3648 20.2C98.1728 19.9227 97.8848 19.784 97.5008 19.784C96.9888 19.784 96.4874 20.0933 95.9968 20.712C95.5274 21.3093 95.2181 21.9387 95.0688 22.6L92.8608 33H88.2527L92.8928 11.24L97.6288 10.6L95.9008 18.664C96.4341 18.0667 97.0101 17.6187 97.6288 17.32C98.2474 17.0213 98.9194 16.872 99.6448 16.872C100.775 16.872 101.65 17.1813 102.269 17.8C102.887 18.4187 103.197 19.3147 103.197 20.488C103.197 20.9787 103.133 21.5653 103.005 22.248C102.898 22.9093 102.674 23.9333 102.333 25.32C102.055 26.408 101.874 27.176 101.789 27.624C101.703 28.072 101.661 28.4453 101.661 28.744C101.661 29.192 101.767 29.5333 101.981 29.768C102.194 29.9813 102.514 30.088 102.941 30.088C103.474 30.088 103.933 29.9067 104.317 29.544C104.701 29.1813 105.138 28.424 105.629 27.272H106.973C106.29 29.256 105.458 30.7387 104.477 31.72C103.517 32.7013 102.365 33.192 101.021 33.192C99.8261 33.192 98.8981 32.872 98.2368 32.232C97.5754 31.5707 97.2448 30.6853 97.2448 29.576ZM110.969 30.088C111.524 30.088 112.014 29.8533 112.441 29.384C112.889 28.8933 113.252 28.1893 113.529 27.272L115.705 17H120.313L118.009 27.88C117.966 28.072 117.934 28.2533 117.913 28.424C117.892 28.5733 117.881 28.7333 117.881 28.904C117.881 29.3307 117.977 29.64 118.169 29.832C118.382 30.0027 118.724 30.088 119.193 30.088C119.748 30.088 120.249 29.8427 120.697 29.352C121.145 28.8613 121.508 28.168 121.785 27.272H123.129C122.446 29.2347 121.561 30.7173 120.473 31.72C119.385 32.7013 118.126 33.192 116.697 33.192C115.78 33.192 115.044 32.936 114.489 32.424C113.934 31.8907 113.614 31.1333 113.529 30.152C112.91 31.176 112.206 31.944 111.417 32.456C110.649 32.9467 109.774 33.192 108.793 33.192C107.726 33.192 106.884 32.8613 106.265 32.2C105.668 31.5173 105.369 30.568 105.369 29.352C105.369 29.0747 105.39 28.7653 105.433 28.424C105.476 28.0613 105.54 27.6773 105.625 27.272L107.801 17H112.409L110.105 27.88C110.062 28.0507 110.03 28.2107 110.009 28.36C110.009 28.488 110.009 28.6267 110.009 28.776C110.009 29.2027 110.084 29.5333 110.233 29.768C110.404 29.9813 110.649 30.088 110.969 30.088ZM126.037 33.192C124.608 33.192 123.499 32.84 122.709 32.136C121.941 31.4107 121.557 30.3973 121.557 29.096C121.557 28.7973 121.579 28.4987 121.621 28.2C121.664 27.9013 121.717 27.592 121.781 27.272L125.205 11.24L129.941 10.6L128.405 17.8C128.917 17.48 129.365 17.256 129.749 17.128C130.155 16.9787 130.581 16.904 131.029 16.904C132.288 16.904 133.227 17.3627 133.845 18.28C134.485 19.176 134.805 20.5413 134.805 22.376C134.805 23.6347 134.613 24.9253 134.229 26.248C133.845 27.5707 133.312 28.7227 132.629 29.704C131.84 30.856 130.891 31.7307 129.781 32.328C128.672 32.904 127.424 33.192 126.037 33.192ZM126.133 28.616C126.133 29.1067 126.272 29.48 126.549 29.736C126.848 29.9707 127.275 30.088 127.829 30.088C128.789 30.088 129.653 29.2453 130.421 27.56C131.189 25.8747 131.573 24.104 131.573 22.248C131.573 21.352 131.413 20.616 131.093 20.04C130.795 19.464 130.389 19.176 129.877 19.176C129.536 19.176 129.173 19.2293 128.789 19.336C128.405 19.4427 128.139 19.5813 127.989 19.752L126.229 27.88C126.208 28.008 126.187 28.136 126.165 28.264C126.144 28.392 126.133 28.5093 126.133 28.616Z" fill="#DCFF50"/>
</svg>
